<?xml version="1.0" encoding="utf-8"?>
<!-- Generator: Adobe Illustrator 23.0.3, SVG Export Plug-In . SVG Version: 6.00 Build 0)  -->
<svg version="1.1" id="Capa_1" xmlns="http://www.w3.org/2000/svg" xmlns:xlink="http://www.w3.org/1999/xlink" x="0px" y="0px"
	 viewBox="0 0 1694 1131" style="enable-background:new 0 0 1694 1131;" xml:space="preserve">
<style type="text/css">
	.st0{font-family:'MyriadPro-Regular';}
	.st1{font-size:12px;}
	.st2{fill:#FFFFFF;stroke:#000000;stroke-miterlimit:10;}
	.st3{font-size:19px;}
	.st4{font-size:16px;}
	.st5{font-size:17px;}
	.st6{stroke:#000000;stroke-width:0.5;stroke-miterlimit:10;}
	.st7{fill:#FFFFFF;}
	.st8{fill:none;stroke:#000000;stroke-width:1.5;stroke-miterlimit:10;}
	.st9{fill:none;stroke:#000000;stroke-width:1.25;stroke-miterlimit:10;}
	.st10{fill:none;stroke:#000000;stroke-miterlimit:10;}
	.st11{fill:none;}
</style>
<text transform="matrix(1 0 0 1 751.3623 67.9912)" class="st0 st1">Glucose-6-P</text>
<text transform="matrix(1 0 0 1 748.7842 113.9912)" class="st0 st1">Fructose-6-P</text>
<text transform="matrix(1 0 0 1 759.9956 17.2979)" class="st0 st1">Glucose</text>
<text transform="matrix(1 0 0 1 744.6187 165.6172)" class="st0 st1">Fructose-1,6-P₂</text>
<text transform="matrix(1 0 0 1 743.9648 223.8936)" class="st0 st1">Glyceraldehyde-3-P</text>
<text transform="matrix(1 0 0 1 737.8408 283.6382)" class="st0 st1">Glycerate-1,3-P₂</text>
<text transform="matrix(1 0 0 1 744.0483 341.4043)" class="st0 st1">Glycerate-3-P</text>
<text transform="matrix(1 0 0 1 740.6016 402.2344)" class="st0 st1">Glycerate-2-P</text>
<text transform="matrix(1 0 0 1 718 459.7236)" class="st0 st1">Phosphoenolpyruvate</text>
<text transform="matrix(1 0 0 1 751.668 518.3613)" class="st0 st1">Pyruvate</text>
<text transform="matrix(1 0 0 1 749.416 574.085)" class="st0 st1">Acetyl-CoA</text>
<text transform="matrix(1 0 0 1 476.7324 612.915)" class="st0 st1">Oxaloacetate</text>
<text transform="matrix(1 0 0 1 379.4526 610.8936)" class="st0 st1">Malate</text>
<text transform="matrix(1 0 0 1 370.4717 491.4893)" class="st0 st1">Glyoxylate</text>
<text transform="matrix(1 0 0 1 372.8389 657.7021)" class="st0 st1">Fumarate</text>
<text transform="matrix(1 -3.550000e-03 3.550000e-03 1 372.5286 710.8055)" class="st0 st1">Succinate</text>
<text transform="matrix(1 0 0 1 417.4365 750)" class="st0 st1">Succinyl-CoA</text>
<text transform="matrix(1 0 0 1 540.8833 749.957)" class="st0 st1">2-Oxoglutarate</text>
<text transform="matrix(1 0 0 1 613.6318 678.8936)" class="st0 st1">Isocitrate</text>
<text transform="matrix(1 0 0 1 621.667 615.957)" class="st0 st1">Citrate</text>
<g>
	<g>
		<path d="M111.4,583c0,85.2,0,170.4,0,255.6c0,24,0,47.9,0,71.9c0,1.9,3,1.9,3,0c0-85.2,0-170.4,0-255.6c0-24,0-47.9,0-71.9
			C114.4,581.1,111.4,581.1,111.4,583L111.4,583z"/>
	</g>
</g>
<g>
	<g>
		<path d="M142.4,583c0,85.2,0,170.4,0,255.6c0,24,0,47.9,0,71.9c0,1.9,3,1.9,3,0c0-85.2,0-170.4,0-255.6c0-24,0-47.9,0-71.9
			C145.4,581.1,142.4,581.1,142.4,583L142.4,583z"/>
	</g>
</g>
<rect x="91.5" y="845.5" class="st2" width="71" height="22"/>
<rect x="91.5" y="780.5" class="st2" width="71" height="22"/>
<rect x="91.5" y="715.5" class="st2" width="71" height="22"/>
<text transform="matrix(1 0 0 1 602.8677 33.8936)" class="st0 st3">Glycolisis</text>
<text transform="matrix(1 0 0 1 99.4448 538.4473)"><tspan x="0" y="0" class="st0 st4">Oxidative</tspan><tspan x="-23.3" y="19.2" class="st0 st4">Phosphorylation</tspan></text>
<text transform="matrix(1 0 0 1 475.7451 680.2979)" class="st0 st5">TCA cycle</text>
<text transform="matrix(1 0 0 1 936.1489 67.5107)" class="st0 st1">Glucono-1,5-lactone-6-P</text>
<text transform="matrix(1 0 0 1 927.541 202.5957)" class="st0 st1">Glycerone-P</text>
<text transform="matrix(1 0 0 1 1035.2764 147.3403)" class="st0 st1">Sedoheptulose-1,7-P₂</text>
<text transform="matrix(1 0 0 1 848.0977 146.9785)" class="st0 st1">Erythrose-4-P</text>
<text transform="matrix(1 0 0 1 1021.7676 114.1914)" class="st0 st1">Xylulose-5-P</text>
<text transform="matrix(1 0 0 1 1126.666 114.3193)" class="st0 st1">Ribulose-5-P</text>
<rect x="89.5" y="660.5" class="st2" width="73" height="22"/>
<rect x="91.5" y="605.5" class="st2" width="71" height="22"/>
<text transform="matrix(1 0 0 1 740.2188 756.2549)" class="st0 st1">Propionyl-CoA</text>
<text transform="matrix(1 0 0 1 515.9434 813.4893)" class="st0 st1">2 -Methylcitrate</text>
<text transform="matrix(1 0 0 1 361.8862 810.5322)" class="st0 st1">2-Methylisocitrate</text>
<text transform="matrix(1 0 0 1 271.7422 874.7451)" class="st0 st1">Succinate</text>
<text transform="matrix(1 0 0 1 342.4985 903.3408)" class="st0 st1">Fumarate</text>
<text transform="matrix(1 0 0 1 509.793 903.2344)" class="st0 st1">Malate</text>
<text transform="matrix(1 0 0 1 592.9028 865.5527)" class="st0 st1">Oxaloacetate</text>
<text transform="matrix(1 0 0 1 403.9102 857.2979)" class="st0 st5">Methylcitrate cycle</text>
<text transform="matrix(1 0 0 1 346.9614 439.5107)" class="st0 st4">Glyoxylate cicle</text>
<g>
	<g>
		<g>
			<path d="M780.6,21.2c0,10.9,0,21.9,0,32.8c0,1,1.5,1,1.5,0c0-1.7,0-3.4,0-5.1c0-1-1.5-1-1.5,0c0,1.7,0,3.4,0,5.1c0,1,1.5,1,1.5,0
				c0-10.9,0-21.9,0-32.8C782.1,20.2,780.6,20.2,780.6,21.2L780.6,21.2z"/>
		</g>
	</g>
	<polygon class="st6" points="781.4,56 783.3,52.7 779.5,52.7 	"/>
</g>
<g>
	<g>
		<g>
			<path d="M780.6,72.2c0,10.9,0,21.9,0,32.8c0,1,1.5,1,1.5,0c0-1.7,0-3.4,0-5.1c0-1-1.5-1-1.5,0c0,1.7,0,3.4,0,5.1c0,1,1.5,1,1.5,0
				c0-10.9,0-21.9,0-32.8C782.1,71.2,780.6,71.2,780.6,72.2L780.6,72.2z"/>
		</g>
	</g>
	<polygon class="st6" points="781.4,107 783.3,103.7 779.5,103.7 	"/>
</g>
<g>
	<g>
		<g>
			<path d="M781.1,118c0,12,0,24,0,36c0,1,1.5,1,1.5,0c0-1.9,0-3.8,0-5.6c0-1-1.5-1-1.5,0c0,1.9,0,3.8,0,5.6c0,1,1.5,1,1.5,0
				c0-12,0-24,0-36C782.6,117,781.1,117,781.1,118L781.1,118z"/>
		</g>
	</g>
	<polygon class="st6" points="781.8,157.5 784.1,153.5 779.5,153.5 	"/>
</g>
<g>
	<g>
		<g>
			<path d="M781.1,174c0,12,0,24,0,36c0,1,1.5,1,1.5,0c0-1.9,0-3.8,0-5.6c0-1-1.5-1-1.5,0c0,1.9,0,3.8,0,5.6c0,1,1.5,1,1.5,0
				c0-12,0-24,0-36C782.6,173,781.1,173,781.1,174L781.1,174z"/>
		</g>
	</g>
	<polygon class="st6" points="781.8,213.5 784.1,209.5 779.5,209.5 	"/>
</g>
<g>
	<g>
		<g>
			<path d="M780.1,233c0,12,0,24,0,36c0,1,1.5,1,1.5,0c0-1.9,0-3.8,0-5.6c0-1-1.5-1-1.5,0c0,1.9,0,3.8,0,5.6c0,1,1.5,1,1.5,0
				c0-12,0-24,0-36C781.6,232,780.1,232,780.1,233L780.1,233z"/>
		</g>
	</g>
	<polygon class="st6" points="780.8,272.5 783.1,268.5 778.5,268.5 	"/>
</g>
<g>
	<g>
		<g>
			<path d="M779.1,292c0,12,0,24,0,36c0,1,1.5,1,1.5,0c0-1.9,0-3.8,0-5.6c0-1-1.5-1-1.5,0c0,1.9,0,3.8,0,5.6c0,1,1.5,1,1.5,0
				c0-12,0-24,0-36C780.6,291,779.1,291,779.1,292L779.1,292z"/>
		</g>
	</g>
	<polygon class="st6" points="779.8,331.5 782.1,327.5 777.5,327.5 	"/>
</g>
<g>
	<g>
		<g>
			<path d="M778.1,351c0,12,0,24,0,36c0,1,1.5,1,1.5,0c0-1.9,0-3.8,0-5.6c0-1-1.5-1-1.5,0c0,1.9,0,3.8,0,5.6c0,1,1.5,1,1.5,0
				c0-12,0-24,0-36C779.6,350,778.1,350,778.1,351L778.1,351z"/>
		</g>
	</g>
	<polygon class="st6" points="778.8,390.5 781.1,386.5 776.5,386.5 	"/>
</g>
<g>
	<g>
		<g>
			<path d="M778.1,407c0,12,0,24,0,36c0,1,1.5,1,1.5,0c0-1.9,0-3.8,0-5.6c0-1-1.5-1-1.5,0c0,1.9,0,3.8,0,5.6c0,1,1.5,1,1.5,0
				c0-12,0-24,0-36C779.6,406,778.1,406,778.1,407L778.1,407z"/>
		</g>
	</g>
	<polygon class="st6" points="778.8,446.5 781.1,442.5 776.5,442.5 	"/>
</g>
<g>
	<g>
		<g>
			<path d="M776.1,469c0,12,0,24,0,36c0,1,1.5,1,1.5,0c0-1.9,0-3.8,0-5.6c0-1-1.5-1-1.5,0c0,1.9,0,3.8,0,5.6c0,1,1.5,1,1.5,0
				c0-12,0-24,0-36C777.6,468,776.1,468,776.1,469L776.1,469z"/>
		</g>
	</g>
	<polygon class="st6" points="776.8,508.5 779.1,504.5 774.5,504.5 	"/>
</g>
<g>
	<g>
		<g>
			<path d="M776.1,524c0,12,0,24,0,36c0,1,1.5,1,1.5,0c0-1.9,0-3.8,0-5.6c0-1-1.5-1-1.5,0c0,1.9,0,3.8,0,5.6c0,1,1.5,1,1.5,0
				c0-12,0-24,0-36C777.6,523,776.1,523,776.1,524L776.1,524z"/>
		</g>
	</g>
	<polygon class="st6" points="776.8,563.5 779.1,559.5 774.5,559.5 	"/>
</g>
<g>
	<g>
		<g>
			<path d="M778.2,582c0,53,0,106,0,159c0,1,1.5,1,1.5,0c0-8.3,0-16.6,0-24.9c0-1-1.5-1-1.5,0c0,8.3,0,16.6,0,24.9c0,1,1.5,1,1.5,0
				c0-53,0-106,0-159C779.7,581,778.2,581,778.2,582L778.2,582z"/>
		</g>
	</g>
	<polygon class="st6" points="778.8,744.5 781.1,740.5 776.5,740.5 	"/>
</g>
<g>
	<g>
		<g>
			<path class="st7" d="M787.1,592.7c-3-4.3-10.1-7-15.1-7.5c0.2,0.3,0.5,0.6,0.7,0.9c0.4-2.5-1-4.3-3.6-4.2c-1,0-1,1.5,0,1.5
				c0.7,0.8,1.4,1.5,2.1,2.3c-0.1,0.5,0.2,0.9,0.7,0.9c4.3,0.4,11.2,3,13.8,6.7C786.4,594.3,787.7,593.5,787.1,592.7L787.1,592.7z"
				/>
		</g>
	</g>
	<g>
		<g>
			<path class="st7" d="M786.1,596.7c-3-4.3-10.1-7-15.1-7.5c0.2,0.3,0.5,0.6,0.7,0.9c0.4-2.5-1-4.3-3.6-4.2c-1,0-1,1.5,0,1.5
				c0.7,0.8,1.4,1.5,2.1,2.3c-0.1,0.5,0.2,0.9,0.7,0.9c4.3,0.4,11.2,3,13.8,6.7C785.4,598.3,786.7,597.5,786.1,596.7L786.1,596.7z"
				/>
		</g>
	</g>
	<g>
		<g>
			<path class="st7" d="M788.1,601.7c-3-4.3-10.1-7-15.1-7.5c0.2,0.3,0.5,0.6,0.7,0.9c0.4-2.5-1-4.3-3.6-4.2c-1,0-1,1.5,0,1.5
				c0.7,0.8,1.4,1.5,2.1,2.3c-0.1,0.5,0.2,0.9,0.7,0.9c4.3,0.4,11.2,3,13.8,6.7C787.4,603.3,788.7,602.5,788.1,601.7L788.1,601.7z"
				/>
		</g>
	</g>
</g>
<g>
	<g>
		<g>
			<path class="st7" d="M786.1,604.7c-3-4.3-10.1-7-15.1-7.5c0.2,0.3,0.5,0.6,0.7,0.9c0.4-2.5-1-4.3-3.6-4.2c-1,0-1,1.5,0,1.5
				c0.7,0.8,1.4,1.5,2.1,2.3c-0.1,0.5,0.2,0.9,0.7,0.9c4.3,0.4,11.2,3,13.8,6.7C785.4,606.3,786.7,605.5,786.1,604.7L786.1,604.7z"
				/>
		</g>
	</g>
	<g>
		<g>
			<path class="st7" d="M785.1,608.7c-3-4.3-10.1-7-15.1-7.5c0.2,0.3,0.5,0.6,0.7,0.9c0.4-2.5-1-4.3-3.6-4.2c-1,0-1,1.5,0,1.5
				c0.7,0.8,1.4,1.5,2.1,2.3c-0.1,0.5,0.2,0.9,0.7,0.9c4.3,0.4,11.2,3,13.8,6.7C784.4,610.3,785.7,609.5,785.1,608.7L785.1,608.7z"
				/>
		</g>
	</g>
	<g>
		<g>
			<path class="st7" d="M787.1,613.7c-3-4.3-10.1-7-15.1-7.5c0.2,0.3,0.5,0.6,0.7,0.9c0.4-2.5-1-4.3-3.6-4.2c-1,0-1,1.5,0,1.5
				c0.7,0.8,1.4,1.5,2.1,2.3c-0.1,0.5,0.2,0.9,0.7,0.9c4.3,0.4,11.2,3,13.8,6.7C786.4,615.3,787.7,614.5,787.1,613.7L787.1,613.7z"
				/>
		</g>
	</g>
</g>
<g>
	<g>
		<g>
			<path class="st7" d="M786.1,616.7c-3-4.3-10.1-7-15.1-7.5c0.2,0.3,0.5,0.6,0.7,0.9c0.4-2.5-1-4.3-3.6-4.2c-1,0-1,1.5,0,1.5
				c0.7,0.8,1.4,1.5,2.1,2.3c-0.1,0.5,0.2,0.9,0.7,0.9c4.3,0.4,11.2,3,13.8,6.7C785.4,618.3,786.7,617.5,786.1,616.7L786.1,616.7z"
				/>
		</g>
	</g>
	<g>
		<g>
			<path class="st7" d="M785.1,620.7c-3-4.3-10.1-7-15.1-7.5c0.2,0.3,0.5,0.6,0.7,0.9c0.4-2.5-1-4.3-3.6-4.2c-1,0-1,1.5,0,1.5
				c0.7,0.8,1.4,1.5,2.1,2.3c-0.1,0.5,0.2,0.9,0.7,0.9c4.3,0.4,11.2,3,13.8,6.7C784.4,622.3,785.7,621.5,785.1,620.7L785.1,620.7z"
				/>
		</g>
	</g>
	<g>
		<g>
			<path class="st7" d="M787.1,625.7c-3-4.3-10.1-7-15.1-7.5c0.2,0.3,0.5,0.6,0.7,0.9c0.4-2.5-1-4.3-3.6-4.2c-1,0-1,1.5,0,1.5
				c0.7,0.8,1.4,1.5,2.1,2.3c-0.1,0.5,0.2,0.9,0.7,0.9c4.3,0.4,11.2,3,13.8,6.7C786.4,627.3,787.7,626.5,787.1,625.7L787.1,625.7z"
				/>
		</g>
	</g>
</g>
<g>
	<g>
		<g>
			<path class="st7" d="M784.1,627.7c-3-4.3-10.1-7-15.1-7.5c0.2,0.3,0.5,0.6,0.7,0.9c0.4-2.5-1-4.3-3.6-4.2c-1,0-1,1.5,0,1.5
				c0.7,0.8,1.4,1.5,2.1,2.3c-0.1,0.5,0.2,0.9,0.7,0.9c4.3,0.4,11.2,3,13.8,6.7C783.4,629.3,784.7,628.5,784.1,627.7L784.1,627.7z"
				/>
		</g>
	</g>
	<g>
		<g>
			<path class="st7" d="M783.1,631.7c-3-4.3-10.1-7-15.1-7.5c0.2,0.3,0.5,0.6,0.7,0.9c0.4-2.5-1-4.3-3.6-4.2c-1,0-1,1.5,0,1.5
				c0.7,0.8,1.4,1.5,2.1,2.3c-0.1,0.5,0.2,0.9,0.7,0.9c4.3,0.4,11.2,3,13.8,6.7C782.4,633.3,783.7,632.5,783.1,631.7L783.1,631.7z"
				/>
		</g>
	</g>
	<g>
		<g>
			<path class="st7" d="M785.1,636.7c-3-4.3-10.1-7-15.1-7.5c0.2,0.3,0.5,0.6,0.7,0.9c0.4-2.5-1-4.3-3.6-4.2c-1,0-1,1.5,0,1.5
				c0.7,0.8,1.4,1.5,2.1,2.3c-0.1,0.5,0.2,0.9,0.7,0.9c4.3,0.4,11.2,3,13.8,6.7C784.4,638.3,785.7,637.5,785.1,636.7L785.1,636.7z"
				/>
		</g>
	</g>
</g>
<g>
	<g>
		<g>
			<path class="st7" d="M785.1,640.7c-3-4.3-10.1-7-15.1-7.5c0.2,0.3,0.5,0.6,0.7,0.9c0.4-2.5-1-4.3-3.6-4.2c-1,0-1,1.5,0,1.5
				c0.7,0.8,1.4,1.5,2.1,2.3c-0.1,0.5,0.2,0.9,0.7,0.9c4.3,0.4,11.2,3,13.8,6.7C784.4,642.3,785.7,641.5,785.1,640.7L785.1,640.7z"
				/>
		</g>
	</g>
	<g>
		<g>
			<path class="st7" d="M784.1,644.7c-3-4.3-10.1-7-15.1-7.5c0.2,0.3,0.5,0.6,0.7,0.9c0.4-2.5-1-4.3-3.6-4.2c-1,0-1,1.5,0,1.5
				c0.7,0.8,1.4,1.5,2.1,2.3c-0.1,0.5,0.2,0.9,0.7,0.9c4.3,0.4,11.2,3,13.8,6.7C783.4,646.3,784.7,645.5,784.1,644.7L784.1,644.7z"
				/>
		</g>
	</g>
	<g>
		<g>
			<path class="st7" d="M786.1,649.7c-3-4.3-10.1-7-15.1-7.5c0.2,0.3,0.5,0.6,0.7,0.9c0.4-2.5-1-4.3-3.6-4.2c-1,0-1,1.5,0,1.5
				c0.7,0.8,1.4,1.5,2.1,2.3c-0.1,0.5,0.2,0.9,0.7,0.9c4.3,0.4,11.2,3,13.8,6.7C785.4,651.3,786.7,650.5,786.1,649.7L786.1,649.7z"
				/>
		</g>
	</g>
</g>
<g>
	<g>
		<g>
			<path class="st7" d="M786.1,653.7c-3-4.3-10.1-7-15.1-7.5c0.2,0.3,0.5,0.6,0.7,0.9c0.4-2.5-1-4.3-3.6-4.2c-1,0-1,1.5,0,1.5
				c0.7,0.8,1.4,1.5,2.1,2.3c-0.1,0.5,0.2,0.9,0.7,0.9c4.3,0.4,11.2,3,13.8,6.7C785.4,655.3,786.7,654.5,786.1,653.7L786.1,653.7z"
				/>
		</g>
	</g>
	<g>
		<g>
			<path class="st7" d="M785.1,657.7c-3-4.3-10.1-7-15.1-7.5c0.2,0.3,0.5,0.6,0.7,0.9c0.4-2.5-1-4.3-3.6-4.2c-1,0-1,1.5,0,1.5
				c0.7,0.8,1.4,1.5,2.1,2.3c-0.1,0.5,0.2,0.9,0.7,0.9c4.3,0.4,11.2,3,13.8,6.7C784.4,659.3,785.7,658.5,785.1,657.7L785.1,657.7z"
				/>
		</g>
	</g>
	<g>
		<g>
			<path class="st7" d="M787.1,662.7c-3-4.3-10.1-7-15.1-7.5c0.2,0.3,0.5,0.6,0.7,0.9c0.4-2.5-1-4.3-3.6-4.2c-1,0-1,1.5,0,1.5
				c0.7,0.8,1.4,1.5,2.1,2.3c-0.1,0.5,0.2,0.9,0.7,0.9c4.3,0.4,11.2,3,13.8,6.7C786.4,664.3,787.7,663.5,787.1,662.7L787.1,662.7z"
				/>
		</g>
	</g>
</g>
<g>
	<g>
		<g>
			<path class="st7" d="M784.1,664.7c-3-4.3-10.1-7-15.1-7.5c0.2,0.3,0.5,0.6,0.7,0.9c0.4-2.5-1-4.3-3.6-4.2c-1,0-1,1.5,0,1.5
				c0.7,0.8,1.4,1.5,2.1,2.3c-0.1,0.5,0.2,0.9,0.7,0.9c4.3,0.4,11.2,3,13.8,6.7C783.4,666.3,784.7,665.5,784.1,664.7L784.1,664.7z"
				/>
		</g>
	</g>
	<g>
		<g>
			<path class="st7" d="M783.1,668.7c-3-4.3-10.1-7-15.1-7.5c0.2,0.3,0.5,0.6,0.7,0.9c0.4-2.5-1-4.3-3.6-4.2c-1,0-1,1.5,0,1.5
				c0.7,0.8,1.4,1.5,2.1,2.3c-0.1,0.5,0.2,0.9,0.7,0.9c4.3,0.4,11.2,3,13.8,6.7C782.4,670.3,783.7,669.5,783.1,668.7L783.1,668.7z"
				/>
		</g>
	</g>
	<g>
		<g>
			<path class="st7" d="M785.1,673.7c-3-4.3-10.1-7-15.1-7.5c0.2,0.3,0.5,0.6,0.7,0.9c0.4-2.5-1-4.3-3.6-4.2c-1,0-1,1.5,0,1.5
				c0.7,0.8,1.4,1.5,2.1,2.3c-0.1,0.5,0.2,0.9,0.7,0.9c4.3,0.4,11.2,3,13.8,6.7C784.4,675.3,785.7,674.5,785.1,673.7L785.1,673.7z"
				/>
		</g>
	</g>
</g>
<g>
	<g>
		<g>
			<path class="st7" d="M786.1,677.7c-3-4.3-10.1-7-15.1-7.5c0.2,0.3,0.5,0.6,0.7,0.9c0.4-2.5-1-4.3-3.6-4.2c-1,0-1,1.5,0,1.5
				c0.7,0.8,1.4,1.5,2.1,2.3c-0.1,0.5,0.2,0.9,0.7,0.9c4.3,0.4,11.2,3,13.8,6.7C785.4,679.3,786.7,678.5,786.1,677.7L786.1,677.7z"
				/>
		</g>
	</g>
	<g>
		<g>
			<path class="st7" d="M785.1,681.7c-3-4.3-10.1-7-15.1-7.5c0.2,0.3,0.5,0.6,0.7,0.9c0.4-2.5-1-4.3-3.6-4.2c-1,0-1,1.5,0,1.5
				c0.7,0.8,1.4,1.5,2.1,2.3c-0.1,0.5,0.2,0.9,0.7,0.9c4.3,0.4,11.2,3,13.8,6.7C784.4,683.3,785.7,682.5,785.1,681.7L785.1,681.7z"
				/>
		</g>
	</g>
	<g>
		<g>
			<path class="st7" d="M787.1,686.7c-3-4.3-10.1-7-15.1-7.5c0.2,0.3,0.5,0.6,0.7,0.9c0.4-2.5-1-4.3-3.6-4.2c-1,0-1,1.5,0,1.5
				c0.7,0.8,1.4,1.5,2.1,2.3c-0.1,0.5,0.2,0.9,0.7,0.9c4.3,0.4,11.2,3,13.8,6.7C786.4,688.3,787.7,687.5,787.1,686.7L787.1,686.7z"
				/>
		</g>
	</g>
</g>
<g>
	<g>
		<g>
			<path class="st7" d="M784.1,688.7c-3-4.3-10.1-7-15.1-7.5c0.2,0.3,0.5,0.6,0.7,0.9c0.4-2.5-1-4.3-3.6-4.2c-1,0-1,1.5,0,1.5
				c0.7,0.8,1.4,1.5,2.1,2.3c-0.1,0.5,0.2,0.9,0.7,0.9c4.3,0.4,11.2,3,13.8,6.7C783.4,690.3,784.7,689.5,784.1,688.7L784.1,688.7z"
				/>
		</g>
	</g>
	<g>
		<g>
			<path class="st7" d="M783.1,692.7c-3-4.3-10.1-7-15.1-7.5c0.2,0.3,0.5,0.6,0.7,0.9c0.4-2.5-1-4.3-3.6-4.2c-1,0-1,1.5,0,1.5
				c0.7,0.8,1.4,1.5,2.1,2.3c-0.1,0.5,0.2,0.9,0.7,0.9c4.3,0.4,11.2,3,13.8,6.7C782.4,694.3,783.7,693.5,783.1,692.7L783.1,692.7z"
				/>
		</g>
	</g>
	<g>
		<g>
			<path class="st7" d="M785.1,697.7c-3-4.3-10.1-7-15.1-7.5c0.2,0.3,0.5,0.6,0.7,0.9c0.4-2.5-1-4.3-3.6-4.2c-1,0-1,1.5,0,1.5
				c0.7,0.8,1.4,1.5,2.1,2.3c-0.1,0.5,0.2,0.9,0.7,0.9c4.3,0.4,11.2,3,13.8,6.7C784.4,699.3,785.7,698.5,785.1,697.7L785.1,697.7z"
				/>
		</g>
	</g>
</g>
<g>
	<g>
		<g>
			<path class="st7" d="M785.1,700.7c-3-4.3-10.1-7-15.1-7.5c0.2,0.3,0.5,0.6,0.7,0.9c0.4-2.5-1-4.3-3.6-4.2c-1,0-1,1.5,0,1.5
				c0.7,0.8,1.4,1.5,2.1,2.3c-0.1,0.5,0.2,0.9,0.7,0.9c4.3,0.4,11.2,3,13.8,6.7C784.4,702.3,785.7,701.5,785.1,700.7L785.1,700.7z"
				/>
		</g>
	</g>
	<g>
		<g>
			<path class="st7" d="M784.1,704.7c-3-4.3-10.1-7-15.1-7.5c0.2,0.3,0.5,0.6,0.7,0.9c0.4-2.5-1-4.3-3.6-4.2c-1,0-1,1.5,0,1.5
				c0.7,0.8,1.4,1.5,2.1,2.3c-0.1,0.5,0.2,0.9,0.7,0.9c4.3,0.4,11.2,3,13.8,6.7C783.4,706.3,784.7,705.5,784.1,704.7L784.1,704.7z"
				/>
		</g>
	</g>
	<g>
		<g>
			<path class="st7" d="M786.1,709.7c-3-4.3-10.1-7-15.1-7.5c0.2,0.3,0.5,0.6,0.7,0.9c0.4-2.5-1-4.3-3.6-4.2c-1,0-1,1.5,0,1.5
				c0.7,0.8,1.4,1.5,2.1,2.3c-0.1,0.5,0.2,0.9,0.7,0.9c4.3,0.4,11.2,3,13.8,6.7C785.4,711.3,786.7,710.5,786.1,709.7L786.1,709.7z"
				/>
		</g>
	</g>
</g>
<g>
	<g>
		<g>
			<path class="st7" d="M785.1,712.7c-3-4.3-10.1-7-15.1-7.5c0.2,0.3,0.5,0.6,0.7,0.9c0.4-2.5-1-4.3-3.6-4.2c-1,0-1,1.5,0,1.5
				c0.7,0.8,1.4,1.5,2.1,2.3c-0.1,0.5,0.2,0.9,0.7,0.9c4.3,0.4,11.2,3,13.8,6.7C784.4,714.3,785.7,713.5,785.1,712.7L785.1,712.7z"
				/>
		</g>
	</g>
	<g>
		<g>
			<path class="st7" d="M784.1,716.7c-3-4.3-10.1-7-15.1-7.5c0.2,0.3,0.5,0.6,0.7,0.9c0.4-2.5-1-4.3-3.6-4.2c-1,0-1,1.5,0,1.5
				c0.7,0.8,1.4,1.5,2.1,2.3c-0.1,0.5,0.2,0.9,0.7,0.9c4.3,0.4,11.2,3,13.8,6.7C783.4,718.3,784.7,717.5,784.1,716.7L784.1,716.7z"
				/>
		</g>
	</g>
	<g>
		<g>
			<path class="st7" d="M786.1,721.7c-3-4.3-10.1-7-15.1-7.5c0.2,0.3,0.5,0.6,0.7,0.9c0.4-2.5-1-4.3-3.6-4.2c-1,0-1,1.5,0,1.5
				c0.7,0.8,1.4,1.5,2.1,2.3c-0.1,0.5,0.2,0.9,0.7,0.9c4.3,0.4,11.2,3,13.8,6.7C785.4,723.3,786.7,722.5,786.1,721.7L786.1,721.7z"
				/>
		</g>
	</g>
</g>
<g>
	<g>
		<g>
			<path class="st7" d="M786.1,725.7c-3-4.3-10.1-7-15.1-7.5c0.2,0.3,0.5,0.6,0.7,0.9c0.4-2.5-1-4.3-3.6-4.2c-1,0-1,1.5,0,1.5
				c0.7,0.8,1.4,1.5,2.1,2.3c-0.1,0.5,0.2,0.9,0.7,0.9c4.3,0.4,11.2,3,13.8,6.7C785.4,727.3,786.7,726.5,786.1,725.7L786.1,725.7z"
				/>
		</g>
	</g>
	<g>
		<g>
			<path class="st7" d="M785.1,729.7c-3-4.3-10.1-7-15.1-7.5c0.2,0.3,0.5,0.6,0.7,0.9c0.4-2.5-1-4.3-3.6-4.2c-1,0-1,1.5,0,1.5
				c0.7,0.8,1.4,1.5,2.1,2.3c-0.1,0.5,0.2,0.9,0.7,0.9c4.3,0.4,11.2,3,13.8,6.7C784.4,731.3,785.7,730.5,785.1,729.7L785.1,729.7z"
				/>
		</g>
	</g>
	<g>
		<g>
			<path class="st7" d="M787.1,734.7c-3-4.3-10.1-7-15.1-7.5c0.2,0.3,0.5,0.6,0.7,0.9c0.4-2.5-1-4.3-3.6-4.2c-1,0-1,1.5,0,1.5
				c0.7,0.8,1.4,1.5,2.1,2.3c-0.1,0.5,0.2,0.9,0.7,0.9c4.3,0.4,11.2,3,13.8,6.7C786.4,736.3,787.7,735.5,787.1,734.7L787.1,734.7z"
				/>
		</g>
	</g>
</g>
<g>
	<g>
		<g>
			<path class="st7" d="M786.1,737.7c-3-4.3-10.1-7-15.1-7.5c0.2,0.3,0.5,0.6,0.7,0.9c0.4-2.5-1-4.3-3.6-4.2c-1,0-1,1.5,0,1.5
				c0.7,0.8,1.4,1.5,2.1,2.3c-0.1,0.5,0.2,0.9,0.7,0.9c4.3,0.4,11.2,3,13.8,6.7C785.4,739.3,786.7,738.5,786.1,737.7L786.1,737.7z"
				/>
		</g>
	</g>
</g>
<g>
	<g>
		<g>
			<path d="M817,64c36.3,0,72.7,0,109,0c1,0,1-1.5,0-1.5c-5.7,0-11.4,0-17,0c-1,0-1,1.5,0,1.5c5.7,0,11.4,0,17,0c0-0.5,0-1,0-1.5
				c-36.3,0-72.7,0-109,0C816,62.5,816,64,817,64L817,64z"/>
		</g>
	</g>
	<polygon class="st6" points="928.8,63.6 925.5,61.7 925.5,65.5 	"/>
</g>
<g>
	<g>
		<g>
			<path d="M782,200.4c45.7,0,91.3,0,137,0c1,0,1-1.5,0-1.5c-7.1,0-14.3,0-21.4,0c-1,0-1,1.5,0,1.5c7.1,0,14.3,0,21.4,0
				c0-0.5,0-1,0-1.5c-45.7,0-91.3,0-137,0C781,198.9,781,200.4,782,200.4L782,200.4z"/>
		</g>
	</g>
	<polygon class="st6" points="921.8,199.6 918.5,197.7 918.5,201.5 	"/>
</g>
<g>
	<g>
		<path d="M844,221.2c38.8,0,77.5,0,116.3,0c1,0,1-1.5,0-1.5c-1.8,0-3.6,0-5.4,0c-1,0-1,1.5,0,1.5c1.8,0,3.6,0,5.4,0
			c1,0,1-1.5,0-1.5c-38.8,0-77.5,0-116.3,0C843,219.7,843,221.2,844,221.2L844,221.2z"/>
	</g>
</g>
<g>
	<g>
		<g>
			<path d="M960.6,221c0-4.2,0-8.3,0-12.5c-0.5,0-1,0-1.5,0c0,0.7,0,1.3,0,2c0,1,1.5,1,1.5,0c0-0.7,0-1.3,0-2c0-1-1.5-1-1.5,0
				c0,4.2,0,8.3,0,12.5C959.1,222,960.6,222,960.6,221L960.6,221z"/>
		</g>
	</g>
	<polygon class="st6" points="959.8,205.5 957.5,209.5 962.1,209.5 	"/>
</g>
<g>
	<g>
		<g>
			<path d="M960.2,191.5c0-15.2,0-30.3,0-45.5c0-1-1.5-1-1.5,0c0,2.4,0,4.7,0,7.1c0,1,1.5,1,1.5,0c0-2.4,0-4.7,0-7.1
				c-0.5,0-1,0-1.5,0c0,15.2,0,30.3,0,45.5C958.7,192.5,960.2,192.5,960.2,191.5L960.2,191.5z"/>
		</g>
	</g>
</g>
<g>
	<g>
		<g>
			<path d="M919,146c36.3,0,72.7,0,109,0c1,0,1-1.5,0-1.5c-5.7,0-11.4,0-17,0c-1,0-1,1.5,0,1.5c5.7,0,11.4,0,17,0c0-0.5,0-1,0-1.5
				c-36.3,0-72.7,0-109,0C918,144.5,918,146,919,146L919,146z"/>
		</g>
	</g>
	<polygon class="st6" points="1030.8,145.6 1027.5,143.7 1027.5,147.5 	"/>
</g>
<g>
	<g>
		<g>
			<path d="M816,112.5c66,0,132,0,198,0c1,0,1-1.5,0-1.5c-10.3,0-20.6,0-31,0c-1,0-1,1.5,0,1.5c10.3,0,20.6,0,31,0c0-0.5,0-1,0-1.5
				c-66,0-132,0-198,0C815,111,815,112.5,816,112.5L816,112.5z"/>
		</g>
	</g>
	<polygon class="st6" points="1017.8,111.6 1014.5,109.7 1014.5,113.5 	"/>
</g>
<g>
	<g>
		<g>
			<path d="M890.8,112c0,8.7,0,17.3,0,26c0,1,1.5,1,1.5,0c0-1.4,0-2.7,0-4.1c0-1-1.5-1-1.5,0c0,1.4,0,2.7,0,4.1c0,1,1.5,1,1.5,0
				c0-8.7,0-17.3,0-26C892.3,111,890.8,111,890.8,112L890.8,112z"/>
		</g>
	</g>
	<polygon class="st6" points="891.8,139.5 894.1,135.5 889.5,135.5 	"/>
</g>
<g>
	<g>
		<path d="M828,201c1.9,0,1.9-3,0-3C826.1,198,826.1,201,828,201L828,201z"/>
	</g>
</g>
<g>
	<g>
		<path class="st7" d="M827.5,201.1c1.9,0,1.9-3,0-3C825.6,198.1,825.6,201.1,827.5,201.1L827.5,201.1z"/>
	</g>
</g>
<g>
	<g>
		<path class="st7" d="M829.4,199.7c-0.2,0.3-0.5,0.6-0.7,1c0.8-0.2,1.3-1.1,1-1.8c-0.2-0.8-1.1-1.2-1.8-1c-0.9,0.2-1.5,1-1.5,1.9
			c0,0.8,0.7,1.5,1.5,1.5C828.7,201.2,829.4,200.6,829.4,199.7L829.4,199.7z"/>
	</g>
</g>
<g>
	<g>
		<g>
			<path d="M828.7,210.5c0-32.8,0-65.7,0-98.5c0-1-1.5-1-1.5,0c0,5.1,0,10.3,0,15.4c0,1,1.5,1,1.5,0c0-5.1,0-10.3,0-15.4
				c-0.5,0-1,0-1.5,0c0,32.8,0,65.7,0,98.5C827.2,211.5,828.7,211.5,828.7,210.5L828.7,210.5z"/>
		</g>
	</g>
</g>
<g>
	<g>
		<g>
			<path d="M1089,112.4c10.9,0,21.9,0,32.8,0c1,0,1-1.5,0-1.5c-1.7,0-3.4,0-5.1,0c-1,0-1,1.5,0,1.5c1.7,0,3.4,0,5.1,0
				c0-0.5,0-1,0-1.5c-10.9,0-21.9,0-32.8,0C1088,110.9,1088,112.4,1089,112.4L1089,112.4z"/>
		</g>
	</g>
	<polygon class="st6" points="1123.8,111.6 1120.5,109.7 1120.5,113.5 	"/>
	<polygon class="st6" points="1087.2,111.2 1090.5,113.1 1090.5,109.3 	"/>
</g>
<polygon class="st6" points="814.2,112.2 817.5,114.1 817.5,110.3 "/>
<g>
	<g>
		<g>
			<path d="M397.4,598c0-33.7,0-67.4,0-101.1c0-1-1.5-1-1.5,0c0,5.3,0,10.5,0,15.8c0,1,1.5,1,1.5,0c0-5.3,0-10.5,0-15.8
				c-0.5,0-1,0-1.5,0c0,33.7,0,67.4,0,101.1C395.9,599,397.4,599,397.4,598L397.4,598z"/>
		</g>
	</g>
	<polygon class="st6" points="396.8,494.5 394.5,498.4 399.1,498.4 	"/>
</g>
<g>
	<g>
		<g>
			<path d="M396.1,615c0,10.2,0,20.4,0,30.5c0,1,1.5,1,1.5,0c0-1.6,0-3.2,0-4.8c0-1-1.5-1-1.5,0c0,1.6,0,3.2,0,4.8c0,1,1.5,1,1.5,0
				c0-10.2,0-20.4,0-30.5C397.6,614,396.1,614,396.1,615L396.1,615z"/>
		</g>
	</g>
	<polygon class="st6" points="396.8,648.5 399.1,645.1 394.5,645.1 	"/>
</g>
<g>
	<g>
		<g>
			<path d="M396.1,661c0,12,0,24,0,36c0,1,1.5,1,1.5,0c0-1.9,0-3.8,0-5.6c0-1-1.5-1-1.5,0c0,1.9,0,3.8,0,5.6c0,1,1.5,1,1.5,0
				c0-12,0-24,0-36C397.6,660,396.1,660,396.1,661L396.1,661z"/>
		</g>
	</g>
	<polygon class="st6" points="396.8,700.5 399.1,696.5 394.5,696.5 	"/>
</g>
<g>
	<g>
		<g>
			<path d="M640.5,664.5c0-12,0-24,0-36c0-1-1.5-1-1.5,0c0,1.9,0,3.8,0,5.6c0,1,1.5,1,1.5,0c0-1.9,0-3.8,0-5.6c-0.5,0-1,0-1.5,0
				c0,12,0,24,0,36C639,665.5,640.5,665.5,640.5,664.5L640.5,664.5z"/>
		</g>
	</g>
	<polygon class="st6" points="639.8,625 637.5,629 642.1,629 	"/>
</g>
<g>
	<g>
		<g>
			<path d="M616.5,610.3c-22.8,0-45.7,0-68.5,0c0,0.5,0,1,0,1.5c3.6,0,7.1,0,10.7,0c1,0,1-1.5,0-1.5c-3.6,0-7.1,0-10.7,0
				c-1,0-1,1.5,0,1.5c22.8,0,45.7,0,68.5,0C617.5,611.8,617.5,610.3,616.5,610.3L616.5,610.3z"/>
		</g>
	</g>
	<polygon class="st6" points="543.5,610.8 547.5,613 547.5,608.5 	"/>
</g>
<g>
	<g>
		<g>
			<path d="M470.5,608.3c-17.2,0-34.4,0-51.5,0c-1,0-1,1.5,0,1.5c2.7,0,5.4,0,8.1,0c1,0,1-1.5,0-1.5c-2.7,0-5.4,0-8.1,0
				c0,0.5,0,1,0,1.5c17.2,0,34.4,0,51.5,0C471.5,609.8,471.5,608.3,470.5,608.3L470.5,608.3z"/>
		</g>
	</g>
	<polygon class="st6" points="416.5,608.8 420.5,611 420.5,606.5 	"/>
</g>
<g>
	<g>
		<g>
			<path d="M485.5,744.2c17.3,0,34.7,0,52,0c1,0,1-1.5,0-1.5c-2.7,0-5.4,0-8.1,0c-1,0-1,1.5,0,1.5c2.7,0,5.4,0,8.1,0
				c0-0.5,0-1,0-1.5c-17.3,0-34.7,0-52,0C484.5,742.7,484.5,744.2,485.5,744.2L485.5,744.2z"/>
		</g>
	</g>
	<polygon class="st6" points="540,743.8 536,741.5 536,746 	"/>
</g>
<g>
	<g>
		<g>
			<g>
				<path d="M620,746.8c6.7,0,13.5,0,20.2,0c1,0,1-1.5,0-1.5c-1.1,0-2.1,0-3.2,0c-1,0-1,1.5,0,1.5c1.1,0,2.1,0,3.2,0
					c0-0.5,0-1,0-1.5c-6.7,0-13.5,0-20.2,0C619,745.3,619,746.8,620,746.8L620,746.8z"/>
			</g>
		</g>
	</g>
	<g>
		<g>
			<g>
				<path d="M640.7,746.5c0-20.2,0-40.3,0-60.5c0-1-1.5-1-1.5,0c0,3.2,0,6.3,0,9.5c0,1,1.5,1,1.5,0c0-3.2,0-6.3,0-9.5
					c-0.5,0-1,0-1.5,0c0,20.2,0,40.3,0,60.5C639.2,747.5,640.7,747.5,640.7,746.5L640.7,746.5z"/>
			</g>
		</g>
		<polygon class="st6" points="640,683.5 638,687.5 642.1,687.5 		"/>
	</g>
</g>
<polygon class="st6" points="396.8,659.5 394.5,663.5 399.1,663.5 "/>
<polygon class="st6" points="396.8,613.5 394.5,617.5 399.1,617.5 "/>
<polygon class="st6" points="396.8,600.5 399.1,596.5 394.5,596.5 "/>
<polygon class="st6" points="483.5,743.5 487.5,745.8 487.5,741.2 "/>
<g>
	<g>
		<g>
			<g>
				<path d="M414,744.1c-5.4,0-10.8,0-16.2,0c0,0.5,0,1,0,1.5c0.8,0,1.7,0,2.5,0c1,0,1-1.5,0-1.5c-0.8,0-1.7,0-2.5,0
					c-1,0-1,1.5,0,1.5c5.4,0,10.8,0,16.2,0C415,745.6,415,744.1,414,744.1L414,744.1z"/>
			</g>
		</g>
	</g>
	<g>
		<g>
			<g>
				<path d="M397.5,745c0-9.7,0-19.5,0-29.2c0-1-1.5-1-1.5,0c0,1.5,0,3,0,4.6c0,1,1.5,1,1.5,0c0-1.5,0-3,0-4.6c-0.5,0-1,0-1.5,0
					c0,9.7,0,19.5,0,29.2C396,746,397.5,746,397.5,745L397.5,745z"/>
			</g>
		</g>
	</g>
</g>
<polygon class="st6" points="396.8,713.5 394.5,717.5 399.1,717.5 "/>
<g>
	<g>
		<path d="M777.7,760.6c0,16.5,0,32.9,0,49.4c0,1,1.5,1,1.5,0c0-3.3,0-6.6,0-9.9c0-1-1.5-1-1.5,0c0,3.3,0,6.6,0,9.9c0,1,1.5,1,1.5,0
			c0-16.5,0-32.9,0-49.4C779.2,759.7,777.7,759.7,777.7,760.6L777.7,760.6z"/>
	</g>
</g>
<g>
	<g>
		<path d="M598,810.5c60,0,120.1,0,180.1,0c1,0,1-1.5,0-1.5c-12.1,0-24.2,0-36.2,0c-1,0-1,1.5,0,1.5c12.1,0,24.2,0,36.2,0
			c1,0,1-1.5,0-1.5c-60,0-120.1,0-180.1,0C597,809,597,810.5,598,810.5L598,810.5z"/>
	</g>
</g>
<g>
	<g>
		<g>
			<path d="M625.3,810c0,15.7,0,31.3,0,47c0,1,1.5,1,1.5,0c0-2.4,0-4.9,0-7.3c0-1-1.5-1-1.5,0c0,2.4,0,4.9,0,7.3c0,1,1.5,1,1.5,0
				c0-15.7,0-31.3,0-47C626.8,809,625.3,809,625.3,810L625.3,810z"/>
		</g>
	</g>
</g>
<g>
	<g>
		<g>
			<path d="M513.5,807.3c-17.2,0-34.4,0-51.5,0c-1,0-1,1.5,0,1.5c2.7,0,5.4,0,8.1,0c1,0,1-1.5,0-1.5c-2.7,0-5.4,0-8.1,0
				c0,0.5,0,1,0,1.5c17.2,0,34.4,0,51.5,0C514.5,808.8,514.5,807.3,513.5,807.3L513.5,807.3z"/>
		</g>
	</g>
	<polygon class="st6" points="459.5,807.8 463.5,810 463.5,805.5 	"/>
</g>
<polyline class="st8" points="357,808 296,808 296,861 "/>
<polygon class="st6" points="295.8,865.5 298.1,861.5 293.5,861.5 "/>
<polyline class="st9" points="296.5,878.5 296.5,898.5 339.5,898.5 "/>
<polygon class="st6" points="341.5,897.8 337.5,895.5 337.5,900 "/>
<g>
	<g>
		<g>
			<path d="M394.5,900.1c35.5,0,71,0,106.5,0c0-0.5,0-1,0-1.5c-5.6,0-11.1,0-16.7,0c-1,0-1,1.5,0,1.5c5.6,0,11.1,0,16.7,0
				c1,0,1-1.5,0-1.5c-35.5,0-71,0-106.5,0C393.5,898.6,393.5,900.1,394.5,900.1L394.5,900.1z"/>
		</g>
	</g>
	<polygon class="st6" points="505.5,899.8 501.5,897.5 501.5,902 	"/>
</g>
<polyline class="st9" points="548.5,899.5 625.5,899.5 625.5,869.5 "/>
<polygon class="st6" points="625.8,867.5 623.5,871.5 628.1,871.5 "/>
<polygon class="st6" points="596.5,809.5 600.5,811.8 600.5,807.2 "/>
<polyline class="st9" points="744.5,516 512.5,516 512.5,603.5 "/>
<polyline class="st9" points="746.5,572 601,572 601,611 "/>
<line class="st9" x1="746.5" y1="567.5" x2="396.9" y2="567.5"/>
<g>
	<polygon class="st6" points="512.8,606.5 515.1,602.5 510.5,602.5 	"/>
</g>
<polygon class="st6" points="748.5,571.8 744.5,569.5 744.5,574 "/>
<polygon class="st6" points="748.5,567.8 744.5,565.5 744.5,570 "/>
<polygon class="st6" points="781.8,115.5 779.5,119.5 784.1,119.5 "/>
<polygon class="st6" points="781.8,69.5 779.5,73.5 784.1,73.5 "/>
<polygon class="st6" points="781.8,171.5 779.5,175.5 784.1,175.5 "/>
<polygon class="st6" points="842.2,220.2 845.5,222.1 845.5,218.3 "/>
<polygon class="st6" points="780.8,230.5 778.5,234.5 783.1,234.5 "/>
<polygon class="st6" points="779.8,289.5 777.5,293.5 782.1,293.5 "/>
<polygon class="st6" points="778.8,348.5 776.5,352.5 781.1,352.5 "/>
<polygon class="st6" points="778.8,404.5 776.5,408.5 781.1,408.5 "/>
<polygon class="st6" points="416.5,744.8 412.5,742.5 412.5,747 "/>
<polygon class="st6" points="639.8,666.9 642.1,663.5 637.5,663.5 "/>
<polygon class="st6" points="617.5,745.5 621.5,747.8 621.5,743.2 "/>
<polygon class="st6" points="618.5,610.8 614.5,608.5 614.5,613 "/>
<text transform="matrix(1 0 0 1 855.9785 53.7871)" class="st0 st1">Rv1447c</text>
<rect x="854" y="41.5" class="st10" width="48.5" height="15.5"/>
<text transform="matrix(1 0 0 1 729.9785 91.7871)" class="st0 st1">Rv0946c</text>
<rect x="727" y="82" class="st10" width="47.5" height="13.5"/>
<text transform="matrix(1 0 0 1 734.9785 142.7871)" class="st0 st1">Rv1099c</text>
<rect x="733.5" y="131.5" class="st10" width="45" height="14.5"/>
<text transform="matrix(1 0 0 1 733.9785 194.7871)" class="st0 st1">Rv0363c</text>
<rect x="733.5" y="184.5" class="st10" width="45" height="15"/>
<text transform="matrix(1 0 0 1 734.9785 253.7871)" class="st0 st1">Rv1436</text>
<rect x="733.5" y="242.5" class="st10" width="41" height="15"/>
<text transform="matrix(1 0 0 1 734.9785 313.7871)" class="st0 st1">Rv1437</text>
<rect x="733.5" y="301.5" class="st10" width="40" height="15.5"/>
<text transform="matrix(1 0 0 1 736.9785 425.7871)" class="st0 st1">Rv1023</text>
<rect x="734.5" y="414.5" class="st10" width="41" height="14.5"/>
<text transform="matrix(1 0 0 1 717.9785 490.7871)" class="st0 st1">Rv1127c</text>
<rect x="715.5" y="478.5" class="st10" width="47" height="18.5"/>
<g>
	<g>
		<g>
			<path d="M769.5,508.5c0-12,0-24,0-36c0-1-1.5-1-1.5,0c0,1.9,0,3.8,0,5.6c0,1,1.5,1,1.5,0c0-1.9,0-3.8,0-5.6c-0.5,0-1,0-1.5,0
				c0,12,0,24,0,36C768,509.5,769.5,509.5,769.5,508.5L769.5,508.5z"/>
		</g>
	</g>
	<polygon class="st6" points="768.8,469 766.5,473 771.1,473 	"/>
</g>
<text transform="matrix(1 0 0 1 728.9785 533.7871)" class="st0 st1">Rv0462</text>
<rect x="727.5" y="522.5" class="st10" width="41" height="37"/>
<text transform="matrix(1 0 0 1 728.9785 544.7871)" class="st0 st1">Rv2215</text>
<text transform="matrix(1 0 0 1 728.9785 555.7871)" class="st0 st1">Rv2241</text>
<text transform="matrix(1 0 0 1 410.9785 556.7871)" class="st0 st1">Rv1837c</text>
<rect x="407" y="544.5" class="st10" width="50.5" height="15.5"/>
<text transform="matrix(1 0 0 1 427.9785 624.7871)" class="st0 st1">Rv1240</text>
<rect x="425" y="615" class="st10" width="42.5" height="13.5"/>
<text transform="matrix(1 0 0 1 495.9785 765.7871)" class="st0 st1">Rv0462</text>
<rect x="493" y="754" class="st10" width="45.5" height="14.5"/>
<text transform="matrix(1 0 0 1 352.9785 733.7871)" class="st0 st1">Rv0951</text>
<rect x="350.5" y="721.5" class="st10" width="42" height="31"/>
<text transform="matrix(1 0 0 1 337.9785 633.7871)" class="st0 st1">Rv1098c</text>
<rect x="334" y="620.5" class="st10" width="50.5" height="17"/>
<g>
	<g>
		<g>
			<path d="M538.5,749.3c-17.2,0-34.4,0-51.5,0c-1,0-1,1.5,0,1.5c2.7,0,5.4,0,8.1,0c1,0,1-1.5,0-1.5c-2.7,0-5.4,0-8.1,0
				c0,0.5,0,1,0,1.5c17.2,0,34.4,0,51.5,0C539.5,750.8,539.5,749.3,538.5,749.3L538.5,749.3z"/>
		</g>
	</g>
	<polygon class="st6" points="484.5,749.8 488.5,752 488.5,747.5 	"/>
</g>
<text transform="matrix(1 0 0 1 649.9785 714.7871)" class="st0 st1">Rv3339c</text>
<rect x="646" y="692" class="st10" width="50.5" height="28.5"/>
<text transform="matrix(1 0 0 1 650.9785 647.7871)" class="st0 st1">Rv1475c</text>
<rect x="647" y="634.5" class="st10" width="49.5" height="16.5"/>
<text transform="matrix(1 0 0 1 616.9785 584.7871)" class="st0 st1">Rv0896</text>
<rect x="610" y="575" class="st10" width="48.5" height="22.5"/>
<text transform="matrix(1 0 0 1 472.9785 798.7871)" class="st0 st1">Rv1130</text>
<rect x="469" y="786.5" class="st10" width="44.5" height="15.5"/>
<text transform="matrix(1 0 0 1 637.9785 825.7871)" class="st0 st1">Rv1131</text>
<rect x="632" y="813.5" class="st10" width="45.5" height="15.5"/>
<text transform="matrix(1 0 0 1 649.9785 702.7871)" class="st0 st1">Rv0066c</text>
<text transform="matrix(1 0 0 1 352.9785 746.7871)" class="st0 st1">Rv0952</text>
<polygon class="st11" points="448,620.3 445.6,620.3 445.6,620.3 448,620.3 "/>
<polygon class="st6" points="472.5,608.8 468.5,606.5 468.5,611 "/>
<text transform="matrix(1 0 0 1 522.9785 530.7871)" class="st0 st1">Rv2967c</text>
<rect x="519" y="521" class="st10" width="50.5" height="13.5"/>
<text transform="matrix(1 0 0 1 432.9785 892.7871)" class="st0 st1">Rv1098c</text>
<rect x="430" y="881.5" class="st10" width="48.5" height="15.5"/>
<text transform="matrix(1 0 0 1 575.9785 890.7871)" class="st0 st1">Rv1240</text>
<rect x="574" y="878" class="st10" width="40.5" height="17.5"/>
<polygon class="st11" points="601,890.3 598.6,890.3 598.6,890.3 601,890.3 "/>
<text transform="matrix(1 0 0 1 102.3491 619.3613)" class="st0 st1">Complex I</text>
<text transform="matrix(1 0 0 1 101.2129 675.1279)" class="st0 st1">Complex II</text>
<text transform="matrix(1 0 0 1 97.7788 730.1279)" class="st0 st1">Complex III</text>
<text transform="matrix(1 0 0 1 97.4268 794.2764)" class="st0 st1">Complex IV</text>
<text transform="matrix(1 0 0 1 100.8608 861.2764)" class="st0 st1">Complex V</text>
<rect x="169.5" y="598.5" class="st10" width="91" height="26"/>
<text transform="matrix(1 0 0 1 171.9785 615.7871)" class="st0 st1">Rv3145 - Rv3158</text>
<text transform="matrix(1 0 0 1 192.9785 678.7871)" class="st0 st1">Rv3318</text>
<rect x="189" y="655" class="st10" width="46.5" height="40.5"/>
<text transform="matrix(1 0 0 1 192.9785 665.7871)" class="st0 st1">Rv3316</text>
<text transform="matrix(1 0 0 1 192.9785 691.7871)" class="st0 st1">Rv3319</text>
<text transform="matrix(1 0 0 1 192.9785 730.7871)" class="st0 st1">Rv2196</text>
<rect x="190" y="718.5" class="st10" width="45.5" height="16.5"/>
<text transform="matrix(1 0 0 1 192.9785 794.7871)" class="st0 st1">Rv3043c</text>
<rect x="187" y="782.5" class="st10" width="53.5" height="17.5"/>
<text transform="matrix(1 0 0 1 965.9785 160.7871)" class="st0 st1">Rv0363c</text>
<rect x="964" y="151.5" class="st10" width="46.5" height="12.5"/>
<text transform="matrix(1 0 0 1 1090.9785 101.7871)" class="st0 st1">Rv1408</text>
<rect x="1087" y="88.5" class="st10" width="43.5" height="16.5"/>
<text transform="matrix(1 0 0 1 926.9785 233.7871)" class="st0 st1">Rv1438</text>
<rect x="924" y="224" class="st10" width="43.5" height="14.5"/>
<text transform="matrix(1 0 0 1 1006.959 184.8936)"><tspan x="0" y="0" class="st0 st3">Pentose Phosphate</tspan><tspan x="42.4" y="22.8" class="st0 st3">Pathway</tspan></text>
<g>
	<g>
		<g>
			<path d="M396.1,447c0,12,0,24,0,36c0,1,1.5,1,1.5,0c0-1.9,0-3.8,0-5.6c0-1-1.5-1-1.5,0c0,1.9,0,3.8,0,5.6c0,1,1.5,1,1.5,0
				c0-12,0-24,0-36C397.6,446,396.1,446,396.1,447L396.1,447z"/>
		</g>
	</g>
</g>
<polygon class="st6" points="396.8,445.5 394.5,449.5 399.1,449.5 "/>
<polygon class="st6" points="392.5,899.8 396.5,902 396.5,897.5 "/>
<polygon class="st6" points="546.5,898.8 550.5,901 550.5,896.5 "/>
<polygon class="st6" points="296.5,876.5 294.2,880.5 298.8,880.5 "/>
<text transform="matrix(1 0 0 1 616.9785 594.7871)" class="st0 st1">Rv1131</text>
<text transform="matrix(1 0 0 1 287.9785 929.7871)" class="st0 st1">Rv3318</text>
<rect x="284" y="906" class="st10" width="46.5" height="40.5"/>
<text transform="matrix(1 0 0 1 287.9785 916.7871)" class="st0 st1">Rv3316</text>
<text transform="matrix(1 0 0 1 287.9785 942.7871)" class="st0 st1">Rv3319</text>
<text transform="matrix(1 0 0 1 323.9785 685.7871)" class="st0 st1">Rv3318</text>
<rect x="320" y="662" class="st10" width="46.5" height="40.5"/>
<text transform="matrix(1 0 0 1 323.9785 672.7871)" class="st0 st1">Rv3316</text>
<text transform="matrix(1 0 0 1 323.9785 698.7871)" class="st0 st1">Rv3319</text>
</svg>
